<?xml version="1.0" encoding="UTF-8" standalone="no"?>
<!-- Created with Inkscape (http://www.inkscape.org/) -->

<svg
   width="512"
   height="512"
   viewBox="0 0 135.46666 135.46667"
   version="1.1"
   id="svg1"
   xml:space="preserve"
   sodipodi:docname="test.svg"
   inkscape:version="1.3 (0e150ed6c4, 2023-07-21)"
   inkscape:export-filename="test.svg"
   inkscape:export-xdpi="96"
   inkscape:export-ydpi="96"
   xmlns:inkscape="http://www.inkscape.org/namespaces/inkscape"
   xmlns:sodipodi="http://sodipodi.sourceforge.net/DTD/sodipodi-0.dtd"
   xmlns="http://www.w3.org/2000/svg"
   xmlns:svg="http://www.w3.org/2000/svg"><sodipodi:namedview
     id="namedview1"
     pagecolor="#ffffff"
     bordercolor="#000000"
     borderopacity="0.25"
     inkscape:showpageshadow="2"
     inkscape:pageopacity="0.0"
     inkscape:pagecheckerboard="0"
     inkscape:deskcolor="#d1d1d1"
     inkscape:document-units="mm"
     inkscape:zoom="23.644984"
     inkscape:cx="456.07982"
     inkscape:cy="474.47695"
     inkscape:window-width="1718"
     inkscape:window-height="1360"
     inkscape:window-x="1713"
     inkscape:window-y="0"
     inkscape:window-maximized="0"
     inkscape:current-layer="layer1" /><defs
     id="defs1" /><g
     inkscape:label="Layer 1"
     inkscape:groupmode="layer"
     id="layer1"><path
       style="fill:#da9a16;fill-opacity:1;stroke:#000000;stroke-width:0.14422;stroke-opacity:0"
       d="m 4.8241778,106.42231 c 0,-0.0726 63.0089602,-98.3182628 63.1613702,-98.4833418 0.07426,-0.08043 62.276322,96.6779918 63.234162,98.3639018 0.0818,0.14411 -12.5889,0.18028 -63.146555,0.18028 -34.786938,0 -63.2489772,-0.0274 -63.2489772,-0.0608 z M 107.19633,92.945324 c -0.17059,-0.44495 -39.011795,-60.572659 -39.110405,-60.544447 -0.143812,0.04115 -39.032788,60.365147 -39.032788,60.547087 0,0.0675 17.593036,0.12274 39.095634,0.12274 22.089859,0 39.074729,-0.0546 39.047559,-0.12538 z"
       id="path20" /><path
       style="fill:#b08923;fill-opacity:1;stroke:#000000;stroke-width:0.14422;stroke-opacity:0"
       d="m 4.6799591,58.630972 c 0,-21.353211 0.03045,-38.824021 0.067665,-38.824021 0.082925,0 32.2049379,25.166331 32.5712639,25.5183 0.251175,0.241335 0.11996,0.468915 -3.311179,5.742952 l -3.572721,5.49166 -0.8712,-0.689612 C 29.084627,55.490965 26.323773,53.345739 23.428556,51.103084 L 18.164528,47.025526 18.092418,61.6473 18.020308,76.269076 11.479675,86.725025 C 7.8823268,92.475794 4.8807495,97.242634 4.8095001,97.317984 4.7329081,97.398984 4.6799598,81.586411 4.6799591,58.630972 Z"
       id="path21" /><path
       style="fill:#b08923;fill-opacity:1;stroke:#000000;stroke-width:0.14422;stroke-opacity:0"
       d="m 58.533162,78.396439 -9.531483,-7.44085 3.525758,-5.347467 c 1.939164,-2.941106 3.60889,-5.43524 3.710501,-5.542519 0.153161,-0.161708 1.173828,0.596854 5.970404,4.43722 l 5.78566,4.632274 5.804119,-4.496079 c 3.192267,-2.472844 5.869446,-4.545553 5.94929,-4.60602 0.08688,-0.0658 1.552182,2.071432 3.64942,5.322891 1.92734,2.988055 3.516937,5.478535 3.53244,5.534401 0.02357,0.08491 -18.74726,14.991889 -18.835323,14.958206 -0.01611,-0.0061 -4.318471,-3.359591 -9.560786,-7.452057 z"
       id="path22" /><path
       style="fill:#b08923;fill-opacity:1;stroke:#000000;stroke-width:0.14422;stroke-opacity:0"
       d="m 4.6799591,119.46295 v -6.77833 H 68.064642 131.44933 v 6.77833 6.77834 H 68.064642 4.6799591 Z"
       id="path23" /><path
       style="fill:#b08923;fill-opacity:1;stroke:#000000;stroke-width:0.14422;stroke-opacity:0"
       d="m 124.63665,86.604712 -6.74057,-10.912516 -0.002,-14.241724 c -8.1e-4,-7.832947 -0.0355,-14.241725 -0.0769,-14.241725 -0.0413,0 -2.78966,2.099561 -6.10738,4.665688 l -6.03222,4.665688 -3.48448,-5.422843 c -1.91647,-2.982564 -3.489972,-5.487741 -3.496675,-5.567061 -0.0064,-0.07932 7.376115,-5.92494 16.406265,-12.990264 l 16.41843,-12.846044 0.0331,11.548063 c 0.0182,6.351437 -0.0142,23.857181 -0.0721,38.901659 l -0.10522,27.353591 z"
       id="path24" /></g></svg>
